<svg width="45" height="45" viewBox="0 0 45 45" fill="none" xmlns="http://www.w3.org/2000/svg">
<path d="M12.0005 16.8006H13.6005V18.976L17.478 18.007L14.1109 15.2006H11.4902L8.12305 18.007L12.0005 18.976V16.8006Z" fill="#FEFEFE"/>
<path d="M32.8008 22.4006H35.6233L34.4729 19.4949C34.4072 19.3299 34.3986 19.1474 34.4486 18.9767L36.3951 12.3206L32.8008 13.396L32.8008 22.4006Z" fill="#FEFEFE"/>
<path d="M29.5533 18.9766C29.6033 19.1474 29.5948 19.3299 29.529 19.4949L28.3787 22.4006H31.2012V13.3959L27.6069 12.3206L29.5533 18.9766Z" fill="#FEFEFE"/>
<path d="M26.4009 27.2006H38.4009V35.2006H26.4009V27.2006Z" fill="#FEFEFE"/>
<path d="M41.6007 39.8196V1.46075C39.6149 1.0879 33.4853 0 29.6007 0C26.0286 0 24.5607 0.652142 23.2007 1.93746V39.8008C30.9607 38.1187 38.8734 39.3047 41.6007 39.8193V39.8196ZM40.0007 8.00064H30.4007V6.40064H40.0007V8.00064ZM37.5446 22.9062C37.6421 23.1527 37.6114 23.4312 37.4625 23.6502C37.3136 23.8694 37.0657 24.0005 36.8007 24.0005H27.2007C26.9357 24.0005 26.6878 23.8694 26.5389 23.6502C26.39 23.4312 26.3593 23.1527 26.4568 22.9062L27.94 19.1616L25.6568 11.3516C25.5746 11.0702 25.6528 10.7666 25.8611 10.5598C26.0693 10.3534 26.3736 10.2773 26.6543 10.3612L32.0008 11.9612L37.3472 10.3612C37.6279 10.2773 37.9322 10.3534 38.1404 10.5598C38.3486 10.7666 38.4269 11.0702 38.3447 11.3516L36.0615 19.1612L37.5446 22.9062ZM34.4007 3.20064H40.0007V4.80064H34.4007V3.20064ZM24.8007 3.20064H32.8007V4.80064H24.8007V3.20064ZM24.8007 6.40064H28.8007V8.00064H24.8007V6.40064ZM24.8007 25.6006H40.0007V36.8006H24.8007V25.6006Z" fill="#FEFEFE"/>
<path d="M14.4009 28.0006H18.4009V29.6006H14.4009V28.0006Z" fill="#FEFEFE"/>
<path d="M13.8592 13.6006L16.4192 7.20062H9.18213L11.7421 13.6006H13.8592Z" fill="#FEFEFE"/>
<path d="M14.4009 34.4006H18.4009V36.0006H14.4009V34.4006Z" fill="#FEFEFE"/>
<path d="M6.40088 28.0006H9.60088V36.0006H6.40088V28.0006Z" fill="#FEFEFE"/>
<path d="M21.6007 39.8013V1.93984C20.2407 0.654172 18.7728 0.000549316 15.2007 0.000549316C11.3161 0.000549316 5.18651 1.08837 3.20068 1.4613V39.8202C5.92782 39.3055 13.8411 38.1201 21.6007 39.8016V39.8013ZM20.0007 31.2006H12.8007V26.4006H20.0007V31.2006ZM20.0007 24.8006H14.4007V23.2006H20.0007V24.8006ZM5.88868 17.7853L10.2409 14.1606L7.25618 6.69989C7.15654 6.45275 7.18618 6.17239 7.33582 5.95167C7.48511 5.73131 7.7344 5.59953 8.00082 5.6006H9.60082V4.0006H11.2008V5.6006H14.4008V4.0006H16.0008V5.6006H17.6008C17.8662 5.6006 18.1144 5.73203 18.2633 5.95167C18.4122 6.17167 18.4426 6.45095 18.344 6.69738L15.3608 14.1606L19.7144 17.7878C19.9462 17.981 20.0494 18.2878 19.9819 18.5817C19.9144 18.8756 19.6872 19.1067 19.3944 19.1792L12.9944 20.7792C12.8669 20.811 12.7333 20.811 12.6054 20.7792L6.20544 19.1792C5.91294 19.1067 5.6858 18.8756 5.61794 18.5817C5.55044 18.2878 5.65401 17.981 5.88544 17.7878L5.88868 17.7853ZM4.80087 23.2006H12.8009V24.8006H4.80087V23.2006ZM11.2009 37.6006H4.80087V26.4006H11.2009V37.6006ZM12.8009 32.8006H20.0009V37.6006H12.8009V32.8006Z" fill="#FEFEFE"/>
<path d="M44.0007 3.20062H43.2007V40.8006C43.2007 41.0446 43.0896 41.2753 42.8989 41.4271C42.7082 41.5788 42.4582 41.6356 42.2207 41.5806C42.1193 41.5574 31.8884 39.2542 22.5946 41.5767C22.4671 41.6096 22.3336 41.6096 22.2061 41.5767C12.9014 39.252 2.68606 41.5567 2.58 41.5806C2.3425 41.6356 2.09251 41.5788 1.90179 41.4271C1.71108 41.2753 1.6 41.0446 1.6 40.8006V3.20062H0.8C0.358217 3.20062 0 3.55884 0 4.00062V42.4006C0 42.6128 0.0842862 42.8163 0.234286 42.9663C0.384285 43.1163 0.587858 43.2006 0.8 43.2006H20.8C21.0121 43.2006 21.2157 43.2849 21.3657 43.4349C21.5157 43.5849 21.6 43.7885 21.6 44.0006C21.6 44.4424 21.9582 44.8006 22.4 44.8006C22.8418 44.8006 23.2 44.4424 23.2 44.0006C23.2 43.5588 23.5582 43.2006 24 43.2006H44C44.2121 43.2006 44.4157 43.1163 44.5657 42.9663C44.7157 42.8163 44.8 42.6128 44.8 42.4006V4.00062C44.8 3.78848 44.7157 3.58491 44.5657 3.43491C44.4157 3.28491 44.2121 3.20062 44 3.20062H44.0007Z" fill="#FEFEFE"/>
</svg>
