<svg width="45" height="45" viewBox="0 0 45 45" fill="none" xmlns="http://www.w3.org/2000/svg">
<path fill-rule="evenodd" clip-rule="evenodd" d="M4.80037 14.4H16.3871L21.3375 18.7968C21.6304 19.0561 22.0079 19.2 22.4 19.2H40C42.6511 19.2 44.8 21.349 44.8 24V40C44.8 42.6511 42.6511 44.8 40 44.8H4.8C2.14894 44.8 0 42.6511 0 40V19.2C0 17.9264 0.505709 16.7058 1.40645 15.8065C2.30573 14.9058 3.52649 14.4 4.8 14.4L4.80037 14.4ZM27.2004 1.81362e-05V6.40002C27.2004 7.28324 27.9172 8.00002 28.8004 8.00002H36.8004V16H23.0084L18.0566 11.6032C17.7637 11.3439 17.3862 11.2 16.9958 11.2H8.00046V4.8C8.00046 3.5264 8.50617 2.30574 9.4069 1.40645C10.3062 0.505728 11.527 0 12.8005 0L27.2004 1.81362e-05ZM30.4004 0.0689471C31.0018 0.196801 31.559 0.496092 32.0004 0.937518L35.8629 4.80001H30.4004V0.0689471Z" fill="#FEFEFE"/>
</svg>
