<svg width="27" height="28" viewBox="0 0 27 28" fill="none" xmlns="http://www.w3.org/2000/svg">
<path d="M2.08542 8.01335C3.19476 5.80435 4.89658 3.94737 7.00066 2.64998C9.10474 1.35259 11.5282 0.665909 14.0001 0.666688C17.5934 0.666688 20.6121 1.98669 22.9201 4.14002L19.0974 7.96402C17.7147 6.64269 15.9574 5.96935 14.0001 5.96935C10.5267 5.96935 7.58675 8.31602 6.54008 11.4667C6.27342 12.2667 6.12142 13.12 6.12142 14C6.12142 14.88 6.27342 15.7334 6.54008 16.5334C7.58808 19.6854 10.5267 22.0307 14.0001 22.0307C15.7934 22.0307 17.3201 21.5574 18.5147 20.7574C19.2073 20.3014 19.8003 19.7097 20.2577 19.018C20.7151 18.3264 21.0275 17.5492 21.1761 16.7334H14.0001V11.576H26.5574C26.7147 12.448 26.8001 13.3574 26.8001 14.3027C26.8001 18.364 25.3467 21.7827 22.8241 24.1027C20.6187 26.14 17.6001 27.3334 14.0001 27.3334C12.2489 27.3341 10.5148 26.9897 8.89681 26.3198C7.27882 25.65 5.80868 24.6679 4.57043 23.4297C3.33217 22.1914 2.35008 20.7213 1.68026 19.1033C1.01045 17.4853 0.666048 15.7512 0.666749 14C0.666749 11.848 1.18142 9.81335 2.08542 8.01335Z" fill="#FEFEFE"/>
</svg>
