<svg width="31" height="50" viewBox="0 0 31 50" fill="none" xmlns="http://www.w3.org/2000/svg">
<path d="M21.0033 31.2597C21.3665 31.2689 21.7354 31.2736 22.1111 31.2736C22.7768 31.2736 23.4593 31.2597 24.1576 31.2347C24.5858 31.2161 24.9208 30.8561 24.904 30.4264C24.8869 29.9968 24.5222 29.6647 24.0972 29.68C23.0362 29.7204 22.0165 29.7282 21.0362 29.7079H21.019C20.5969 29.7079 20.2512 30.0447 20.2419 30.4664C20.2323 30.895 20.5736 31.2518 21.0033 31.2597Z" fill="#FEFEFE"/>
<path d="M14.706 30.6745C15.7129 30.8499 16.7696 30.9863 17.8493 31.0874C17.8743 31.0888 17.8957 31.0906 17.9207 31.0906C18.3178 31.0906 18.6561 30.7881 18.6932 30.3845C18.7303 29.9577 18.4153 29.5777 17.9903 29.5388C16.9524 29.4442 15.9379 29.3124 14.9711 29.1449C14.5507 29.0735 14.1472 29.3542 14.0743 29.7763C14 30.1981 14.2839 30.6017 14.706 30.6745Z" fill="#FEFEFE"/>
<path d="M29.6874 29.1961C28.8231 29.3093 27.9791 29.404 27.157 29.48C26.7288 29.519 26.4138 29.899 26.4542 30.3257C26.4899 30.7293 26.8295 31.0318 27.2267 31.0318C27.2517 31.0318 27.2749 31.0304 27.2995 31.0286C28.1406 30.9493 29.0063 30.8532 29.892 30.7368C30.3155 30.6793 30.6148 30.2886 30.5591 29.8632C30.5048 29.4411 30.1124 29.1404 29.6874 29.1961Z" fill="#FEFEFE"/>
<path d="M6.7682 27.2222C7.00106 26.8622 6.89856 26.3797 6.53856 26.1468C5.62642 25.554 4.90638 24.9272 4.39895 24.2836C4.1336 23.9468 3.64645 23.8864 3.30821 24.1532C2.97 24.4186 2.9125 24.9072 3.17785 25.244C3.7907 26.0229 4.63641 26.7643 5.69287 27.4504C5.82465 27.5372 5.97215 27.5761 6.11501 27.5761C6.36929 27.5744 6.61928 27.4504 6.7682 27.2222Z" fill="#FEFEFE"/>
<path d="M1.30799 28.2882C1.28799 28.715 1.61692 29.0811 2.048 29.1011C3.09833 29.1507 4.15333 29.1818 5.18373 29.1911H5.19158C5.61658 29.1911 5.96587 28.8482 5.96873 28.4214C5.97337 27.9932 5.6273 27.6411 5.19908 27.6379C4.18907 27.6272 3.15583 27.6007 2.12406 27.5479C1.72871 27.5418 1.32978 27.8582 1.30799 28.2882Z" fill="#FEFEFE"/>
<path d="M11.3385 27.4288C10.3517 27.5095 9.3199 27.5685 8.27276 27.6027C7.84455 27.6167 7.50776 27.9767 7.52348 28.4049C7.53598 28.8253 7.88205 29.156 8.29777 29.156H8.32563C8.56134 29.1467 8.78491 29.1249 9.0192 29.117C9.83384 29.4352 10.6917 29.7313 11.5992 29.9827C11.6689 30.0027 11.7389 30.0124 11.8085 30.0124C12.1499 30.0124 12.4617 29.786 12.5564 29.4431C12.6603 29.0599 12.4539 28.6752 12.0939 28.5277C12.1496 28.4099 12.1885 28.2809 12.1778 28.1399C12.1406 27.7095 11.776 27.3917 11.3385 27.4288Z" fill="#FEFEFE"/>
<path d="M14.6033 28.6265C15.7158 28.4651 16.7648 28.273 17.7252 28.0494C18.1441 27.9515 18.4048 27.5358 18.307 27.1183C18.2091 26.6994 17.792 26.4386 17.373 26.5365C16.4563 26.749 15.4505 26.9336 14.3816 27.0872C13.9566 27.1476 13.6616 27.5419 13.7223 27.9654C13.778 28.3533 14.1116 28.6326 14.4901 28.6326C14.5273 28.634 14.563 28.6312 14.6033 28.6265Z" fill="#FEFEFE"/>
<path d="M20.804 27.1216C22.0284 26.6437 23.0119 26.0883 23.7255 25.4708C24.0512 25.1901 24.084 24.6998 23.8062 24.3755C23.5237 24.0498 23.0319 24.0169 22.7094 24.2962C22.129 24.7973 21.299 25.2613 20.2394 25.6755C19.839 25.8323 19.6419 26.2823 19.7972 26.6809C19.9183 26.988 20.2115 27.1759 20.5219 27.1759C20.6165 27.1773 20.7112 27.1587 20.804 27.1216Z" fill="#FEFEFE"/>
<path d="M2.91427 22.6645C3.3007 22.6645 3.6357 22.3759 3.68392 21.9834C3.77857 21.2138 4.0732 20.8538 4.34035 20.6834C4.30928 20.1341 4.24249 19.602 4.16642 19.0712C3.35964 19.3134 2.35888 20.0502 2.14174 21.7927C2.08888 22.2163 2.39138 22.6041 2.81816 22.6598C2.84888 22.6613 2.88141 22.6645 2.91427 22.6645Z" fill="#FEFEFE"/>
<path d="M25.1798 22.0747C24.978 20.5141 23.8177 19.7568 22.9534 19.4744C22.8912 20.0112 22.8416 20.5498 22.8276 21.1033C23.1705 21.2926 23.5551 21.6387 23.6376 22.2747C23.6887 22.6658 24.0241 22.9511 24.4073 22.9511C24.4398 22.9511 24.4741 22.9511 24.508 22.9451C24.9348 22.8893 25.2355 22.5015 25.1798 22.0747Z" fill="#FEFEFE"/>
<path d="M4.82497 22.616C4.85747 22.9078 5.13997 23.5406 6.07388 24.3552C6.96745 25.137 8.14995 25.8106 9.51352 26.3924C15.5628 26.0741 20.3039 24.9495 22.0292 23.3467C22.2077 23.1838 22.3038 23.0535 22.372 22.9371C21.871 17.3392 24.4078 12.3277 26.0445 9.27031C26.791 7.88032 27.6131 7.14176 26.046 5.88498C22.1702 2.77568 17.0721 2.74322 17.0721 2.74322V1.48178C17.0721 0.699639 16.6364 0 15.5035 0H13.5889H11.6728C10.5418 0 10.1043 0.698213 10.1043 1.48178V2.74322C10.1043 2.74322 5.00468 2.77715 1.1304 5.88645C-0.434951 7.14322 0.387184 7.88005 1.1304 9.27177C2.73936 12.2693 5.20327 17.1489 4.82466 22.6167L4.82497 22.616Z" fill="#FEFEFE"/>
<path d="M22.1508 32.4281H22.1462C16.1591 32.4281 11.8459 31.4428 8.8278 30.2839C7.67031 30.3321 6.63708 30.3489 5.82885 30.3489C4.85276 30.3489 3.87246 30.3303 2.89353 30.2946C1.19314 35.1214 0 36.4371 0 42.0706C0 42.0706 2.38318 46.3216 12.0768 46.7327L12.0764 49.6485H15.0957V46.7331C24.7908 46.322 27.1743 42.071 27.1743 42.071C27.1743 37.3142 26.3193 35.6385 25.0318 32.3256C24.0604 32.3767 23.0875 32.4277 22.1503 32.4277L22.1508 32.4281Z" fill="#FEFEFE"/>
</svg>
