<svg width="45" height="32" viewBox="0 0 45 32" fill="none" xmlns="http://www.w3.org/2000/svg">
<path d="M22.0165 0C18.7408 0 15.4597 1.24462 12.9604 3.74391C10.8393 5.86496 9.61756 8.54674 9.29646 11.3117C4.08037 11.7853 0 16.1646 0 21.5042C0 27.1595 4.58469 31.7442 10.24 31.7442H35.328C40.1501 31.7442 44.0319 27.862 44.0319 23.0403C44.0319 18.2182 40.1498 14.3364 35.328 14.3364H34.7201C35.1712 10.571 33.9459 6.63387 31.0562 3.74437C28.5569 1.24507 25.2919 0.000456892 22.0162 0.000456892L22.0165 0ZM22.0165 10.752C22.2882 10.7509 22.479 10.802 22.7043 11.0081L28.3365 16.1281C28.7372 16.4877 28.8108 17.1891 28.4165 17.5842C28.0361 17.9652 27.3579 18.011 26.9604 17.6481L23.0404 14.0795V25.0875C23.0404 25.6533 22.5822 26.1115 22.0165 26.1115C21.4508 26.1115 20.9926 25.6529 20.9926 25.0875V14.0795L17.0726 17.6474C16.6751 18.0102 15.9779 17.9824 15.6165 17.5834C15.2551 17.1845 15.2758 16.4938 15.6965 16.1273L21.3287 11.0073C21.4751 10.8734 21.743 10.7566 22.0165 10.7513L22.0165 10.752Z" fill="#FEFEFE"/>
</svg>
